<svg width="206" height="109" viewBox="0 0 206 109" fill="none" xmlns="http://www.w3.org/2000/svg">
<path d="M27.1729 41.2324L29.8828 41.1592C30.8105 41.1592 31.7139 41.2812 32.5928 41.5254C33.4717 41.7207 34.3506 41.7451 35.2295 41.5986C35.3271 41.7939 35.4492 41.9893 35.5957 42.1846C35.7422 42.3311 35.8154 42.5752 35.8154 42.917C35.8154 43.21 35.5957 43.4297 35.1562 43.5762C34.7168 43.7227 34.3262 43.8447 33.9844 43.9424C33.7891 44.04 33.7158 44.1865 33.7646 44.3818C33.8135 44.5771 33.7402 44.7236 33.5449 44.8213C33.4473 45.1631 33.252 45.3828 32.959 45.4805C32.666 45.5781 32.5195 45.8223 32.5195 46.2129L32.8125 47.6777L32.5195 50.3145L32.666 51.3398C32.666 51.584 32.5928 51.8281 32.4463 52.0723C32.3486 52.2676 32.2998 52.5361 32.2998 52.8779C32.3486 53.1709 32.373 53.415 32.373 53.6104L32.2266 54.2695L32.373 54.7822C32.373 55.0264 32.2998 55.2461 32.1533 55.4414C32.0068 55.6367 31.9824 55.8809 32.0801 56.1738L31.4941 56.9062L31.5674 57.126C31.5674 57.5654 31.4697 57.9072 31.2744 58.1514C31.1279 58.3467 31.0791 58.6641 31.1279 59.1035C30.9814 59.1035 30.6152 59.665 30.0293 60.7881C29.4922 61.9111 29.126 62.5459 28.9307 62.6924C28.833 62.9365 28.7842 63.2051 28.7842 63.498C28.7842 63.7422 28.7109 64.0596 28.5645 64.4502C28.418 64.792 28.125 65.085 27.6855 65.3291C27.2949 65.5244 26.9775 65.8418 26.7334 66.2812H26.5137C26.3184 66.1348 25.8789 66.4521 25.1953 67.2334C24.5605 68.0146 24.0234 68.4053 23.584 68.4053L23.0713 68.332C22.876 68.332 22.7539 68.3809 22.7051 68.4785C22.4121 68.5273 22.1924 68.6494 22.0459 68.8447C21.8994 68.9912 21.7041 69.1377 21.46 69.2842H21.2402C20.6543 69.2842 20.1904 69.4307 19.8486 69.7236C19.751 69.5283 19.6045 69.4551 19.4092 69.5039C19.2139 69.5039 19.043 69.5039 18.8965 69.5039C18.75 69.5039 18.6523 69.4795 18.6035 69.4307H18.457L17.7979 69.8701H17.5781C17.2363 69.9189 17.0166 69.8945 16.9189 69.7969C16.8213 69.6504 16.6504 69.5283 16.4062 69.4307C16.0156 69.5283 15.6494 69.5771 15.3076 69.5771H13.7695C13.3301 69.0889 12.8662 68.7715 12.3779 68.625C12.2803 68.5273 12.1826 68.4785 12.085 68.4785C12.0361 68.4785 11.9629 68.5518 11.8652 68.6982C11.7676 68.8447 11.6455 68.8936 11.499 68.8447H11.4258C11.2793 68.6006 11.1084 68.4541 10.9131 68.4053C10.7178 68.3564 10.5225 68.2832 10.3271 68.1855C10.2295 67.9414 10.1074 67.7949 9.96094 67.7461C9.81445 67.6973 9.61914 67.5996 9.375 67.4531C9.0332 66.5254 8.39844 65.7441 7.4707 65.1094C7.4707 64.8652 7.37305 64.6699 7.17773 64.5234C6.98242 64.3281 6.78711 63.9375 6.5918 63.3516C6.44531 63.1074 6.25 62.9121 6.00586 62.7656C5.56641 62.375 5.34668 62.0332 5.34668 61.7402V61.4473C5.34668 61.1543 5.07812 60.7393 4.54102 60.2021C4.44336 59.5186 4.29688 58.8594 4.10156 58.2246C3.95508 57.541 3.80859 56.6377 3.66211 55.5146C3.51562 54.3916 3.44238 53 3.44238 51.3398C3.44238 49.6309 3.54004 48.2148 3.73535 47.0918C3.93066 45.9688 4.02832 44.8213 4.02832 43.6494L3.88184 42.7705C3.88184 42.5752 3.90625 42.3799 3.95508 42.1846C4.05273 41.9404 4.12598 41.6719 4.1748 41.3789C4.27246 41.0371 4.3457 40.6709 4.39453 40.2803C4.49219 39.8896 4.61426 39.5479 4.76074 39.2549C4.95605 38.9131 5.10254 38.6689 5.2002 38.5225C5.29785 38.3271 5.39551 38.083 5.49316 37.79C5.63965 37.4482 5.7373 37.0576 5.78613 36.6182C5.88379 36.1299 6.03027 35.5684 6.22559 34.9336C6.46973 34.2988 6.81152 33.6152 7.25098 32.8828C7.73926 32.1504 8.1543 31.3936 8.49609 30.6123C9.17969 30.2217 9.69238 29.6846 10.0342 29.001C10.376 28.3174 10.7178 27.8535 11.0596 27.6094C11.4502 27.3164 11.6699 27.1943 11.7188 27.2432C11.8164 27.2432 11.8896 27.2187 11.9385 27.1699L12.085 26.877C12.1826 26.7793 12.3047 26.7305 12.4512 26.7305C12.7441 26.7305 13.0615 26.4863 13.4033 25.998L14.0625 25.1191C14.7949 24.875 15.3809 24.3867 15.8203 23.6543C16.3086 23.5566 16.7725 23.3613 17.2119 23.0684C17.7002 22.7266 18.2129 22.6289 18.75 22.7754C18.8477 22.6777 19.1162 22.5312 19.5557 22.3359C19.9951 22.1406 20.2637 22.043 20.3613 22.043L21.167 22.1895L22.2656 21.8965L23.4375 22.043L24.6826 21.9697C25.2686 21.9697 25.7324 22.0918 26.0742 22.3359C26.416 22.5801 26.5869 22.751 26.5869 22.8486C26.5869 22.8975 26.6357 22.9707 26.7334 23.0684C26.8799 23.1172 26.9775 23.1416 27.0264 23.1416C27.0752 23.0928 27.2217 23.166 27.4658 23.3613C27.71 23.5566 27.9297 23.8496 28.125 24.2402C28.3203 24.6309 28.6865 24.875 29.2236 24.9727C29.5166 24.7285 29.6387 24.3623 29.5898 23.874C29.541 23.3857 29.5166 22.9707 29.5166 22.6289C29.5166 22.2383 29.6387 21.8477 29.8828 21.457C30.1758 21.0176 30.4932 20.7979 30.835 20.7979C31.1768 20.7979 31.4209 20.9443 31.5674 21.2373C31.7627 21.4814 31.9824 21.6523 32.2266 21.75C32.2754 22.2383 32.2998 22.7266 32.2998 23.2148C32.3486 23.6543 32.4219 24.0693 32.5195 24.46C32.6172 24.8506 32.7393 25.2412 32.8857 25.6318C33.0811 25.9736 33.1787 26.3887 33.1787 26.877C33.1787 27.3652 33.0566 27.9268 32.8125 28.5615L32.5195 28.708C32.4219 28.9521 32.373 29.0986 32.373 29.1475C32.373 29.1963 32.251 29.2207 32.0068 29.2207C31.7627 29.2207 31.6162 29.3184 31.5674 29.5137C31.5674 29.709 31.3965 29.8066 31.0547 29.8066L29.8828 29.7334C29.7363 28.8545 29.4678 28.2197 29.0771 27.8291L28.3447 27.0234C28.0029 26.7305 27.7832 26.584 27.6855 26.584C27.3926 26.6816 27.1973 26.6084 27.0996 26.3643C27.002 26.0713 26.6357 25.8271 26.001 25.6318C25.9033 25.4365 25.7812 25.29 25.6348 25.1924C25.5371 25.0947 25.4883 24.9238 25.4883 24.6797H25.3418C25.0977 24.6797 24.9268 24.6309 24.8291 24.5332C24.7803 24.4355 24.6582 24.3379 24.4629 24.2402C23.584 24.4844 22.7295 24.582 21.8994 24.5332C21.1182 24.4844 20.4346 24.5088 19.8486 24.6064C19.2627 24.7041 18.9209 24.875 18.8232 25.1191C18.7256 25.3633 18.5547 25.5342 18.3105 25.6318C17.5781 25.6807 17.041 25.9004 16.6992 26.291C16.4062 26.6328 16.1133 26.9014 15.8203 27.0967C15.5273 27.292 15.332 27.3896 15.2344 27.3896C15.1855 27.3408 15.1123 27.3408 15.0146 27.3896C14.8193 27.5361 14.6973 27.7314 14.6484 27.9756C14.5996 28.1709 14.3555 28.2197 13.916 28.1221C13.916 28.2197 13.8184 28.4883 13.623 28.9277C13.4277 29.3184 13.3057 29.5869 13.2568 29.7334C13.1592 29.8311 12.915 30.002 12.5244 30.2461C12.1338 30.4902 11.9141 30.71 11.8652 30.9053C11.8164 31.1006 11.6699 31.2227 11.4258 31.2715V32.4434C11.1816 32.541 11.0352 32.7119 10.9863 32.9561C10.9375 33.2002 10.8154 33.3711 10.6201 33.4688C10.5713 33.5664 10.5469 33.6885 10.5469 33.835C10.5957 33.9326 10.6201 34.0547 10.6201 34.2012C10.6201 34.3477 10.5713 34.4453 10.4736 34.4941C10.376 34.543 10.2783 34.6162 10.1807 34.7139C10.083 35.2021 9.96094 35.5684 9.81445 35.8125C9.7168 36.0078 9.64355 36.2031 9.59473 36.3984C9.5459 36.5938 9.5459 36.8379 9.59473 37.1309C9.64355 37.4238 9.66797 37.6924 9.66797 37.9365L9.375 39.6943L9.52148 41.5254L9.22852 43.4297L9.52148 46.1396L9.375 48.2637L9.52148 48.6299L9.22852 51.0469C9.22852 51.6816 9.27734 52.292 9.375 52.8779L9.66797 53.9033L9.52148 54.8555L9.81445 56.3203C10.0586 57.5898 10.376 58.4932 10.7666 59.0303C11.2061 59.5186 11.4746 59.8848 11.5723 60.1289C11.6699 60.373 11.6943 60.5684 11.6455 60.7148C11.6455 60.8613 11.6455 60.9834 11.6455 61.0811C11.6455 61.1787 11.6699 61.252 11.7188 61.3008C11.8164 61.3496 11.8896 61.4473 11.9385 61.5938C12.0361 61.7402 12.085 61.9111 12.085 62.1064C12.085 62.2529 12.1094 62.3994 12.1582 62.5459C12.207 62.6436 12.3291 62.8389 12.5244 63.1318C12.7197 63.4248 12.9395 63.791 13.1836 64.2305L14.0625 65.6953C14.1602 65.793 14.2578 65.8418 14.3555 65.8418C14.502 65.8418 14.624 65.8906 14.7217 65.9883C14.8193 66.0859 14.8682 66.1592 14.8682 66.208C14.8682 66.2568 14.8926 66.3301 14.9414 66.4277C15.0391 66.4766 15.1855 66.501 15.3809 66.501C15.5762 66.4521 15.7227 66.4766 15.8203 66.5742V66.8672C16.2598 67.0137 16.5527 67.1602 16.6992 67.3066C16.8457 67.2578 17.4561 67.2334 18.5303 67.2334C19.6533 67.2334 20.2881 66.9648 20.4346 66.4277C20.5322 66.5254 20.8008 66.5742 21.2402 66.5742C21.6797 66.5742 21.9727 66.4521 22.1191 66.208C22.3145 65.9639 22.6074 65.7441 22.998 65.5488C23.4375 65.3535 23.8037 65.2559 24.0967 65.2559C24.3896 65.2559 24.7559 65.0361 25.1953 64.5967V64.3037H25.4883C25.5859 64.2061 25.6348 64.084 25.6348 63.9375C25.6348 63.7422 25.7568 63.4736 26.001 63.1318C26.2451 62.79 26.6357 62.2773 27.1729 61.5938C27.71 60.9102 28.0762 60.3242 28.2715 59.8359C28.6133 58.8594 28.9551 57.6875 29.2969 56.3203C29.6875 54.9531 30.0049 54.1475 30.249 53.9033L30.1758 52.6582C30.1758 50.9492 30.3955 49.6064 30.835 48.6299V48.5566L30.542 46.8721V46.4326C30.542 46.0908 30.4199 45.8711 30.1758 45.7734C29.9805 45.6758 29.8096 45.5537 29.6631 45.4072C29.5654 45.2119 29.5166 45.0898 29.5166 45.041C29.5654 44.9434 29.4189 44.7236 29.0771 44.3818C28.7354 44.04 28.3203 43.8691 27.832 43.8691C27.3926 43.8691 27.002 43.9668 26.6602 44.1621C26.3672 44.3086 26.0254 44.4307 25.6348 44.5283C23.9258 43.9424 22.7295 43.6006 22.0459 43.5029C22.0947 43.4541 22.1191 43.3809 22.1191 43.2832C22.1191 43.1855 22.0459 43.1367 21.8994 43.1367C21.7529 43.1367 21.6797 42.9414 21.6797 42.5508C21.6797 42.1113 22.0215 41.623 22.7051 41.0859C23.4375 41.1836 24.1943 41.2324 24.9756 41.2324H27.1729ZM43.2129 58.8105L45.5566 58.3711C45.9473 58.3711 46.1914 58.3467 46.2891 58.2979C46.4355 58.2002 46.9727 58.0293 47.9004 57.7852C48.8281 57.541 49.707 57.4189 50.5371 57.4189H52.2949C52.8809 57.4189 53.3203 57.5166 53.6133 57.7119C53.9062 57.8584 54.1748 57.9316 54.4189 57.9316C54.6631 57.9316 55.0781 57.7119 55.6641 57.2725C55.7129 57.0771 55.7373 56.8818 55.7373 56.6865V56.0273C55.7373 54.8066 55.6396 53.7324 55.4443 52.8047C55.2979 51.8281 55.249 50.7783 55.2979 49.6553C55.3955 48.5322 55.3223 47.8486 55.0781 47.6045C54.8828 47.3115 54.7363 47.0918 54.6387 46.9453C54.541 46.75 54.5166 46.5547 54.5654 46.3594C54.6143 46.1641 54.541 45.9443 54.3457 45.7002C54.1992 45.4072 54.126 45.2119 54.126 45.1143C54.1748 44.9678 54.1504 44.8457 54.0527 44.748C54.0039 44.6504 53.9307 44.6016 53.833 44.6016C53.7842 44.5527 53.7109 44.4795 53.6133 44.3818C53.5645 44.2842 53.54 44.2109 53.54 44.1621C53.5889 44.1133 53.5645 44.0156 53.4668 43.8691C53.418 43.7227 53.2959 43.6006 53.1006 43.5029C52.9541 43.3564 52.8564 43.1611 52.8076 42.917C52.1729 42.624 51.6357 42.1357 51.1963 41.4521C50.9521 41.4033 50.6836 41.4033 50.3906 41.4521C50.1465 41.4521 49.9023 41.4277 49.6582 41.3789C49.4629 41.2812 49.292 41.208 49.1455 41.1592C48.999 41.0615 48.8281 41.0127 48.6328 41.0127L46.9482 41.4521C46.8994 41.4521 46.7285 41.4033 46.4355 41.3057C46.1914 41.3545 46.0693 41.5254 46.0693 41.8184C46.0693 42.0625 46.0205 42.2578 45.9229 42.4043C45.4834 42.4043 45.2637 42.5752 45.2637 42.917C45.0195 42.917 44.8486 42.9902 44.751 43.1367C44.6533 43.2832 44.458 43.3076 44.165 43.21C43.9697 43.5518 43.7744 43.8936 43.5791 44.2354C43.3838 44.5771 43.1152 44.8457 42.7734 45.041C42.627 45.8223 42.5537 46.5547 42.5537 47.2383C42.5537 47.9219 42.7002 48.4102 42.9932 48.7031C43.2861 48.9961 43.4326 49.3135 43.4326 49.6553C43.4326 49.9482 43.3105 50.3389 43.0664 50.8271C42.8223 51.2666 42.5293 51.4863 42.1875 51.4863C41.8457 51.4863 41.6016 51.3887 41.4551 51.1934C41.3574 50.998 41.2598 50.7783 41.1621 50.5342C41.1133 50.29 41.0645 50.0459 41.0156 49.8018C40.9668 49.5088 40.7959 49.2158 40.5029 48.9229C40.6494 48.9229 40.7227 48.8008 40.7227 48.5566C40.7227 48.3125 40.6494 48.0928 40.5029 47.8975C40.3564 47.7021 40.2832 47.165 40.2832 46.2861C40.2832 45.4072 40.4785 44.8457 40.8691 44.6016C40.8203 44.6016 40.7959 44.5527 40.7959 44.4551L40.9424 43.7959C40.8936 43.7959 40.8691 43.7471 40.8691 43.6494L41.1621 43.21L41.0889 43.0635C41.1377 42.8682 41.2354 42.7949 41.3818 42.8438C41.5771 42.8438 41.7236 42.7949 41.8213 42.6973C41.9189 42.5508 42.1387 42.1357 42.4805 41.4521C42.8223 41.3545 43.042 41.208 43.1396 41.0127C43.2861 40.7686 43.4814 40.5488 43.7256 40.3535C44.1162 40.207 44.3848 40.0361 44.5312 39.8408C44.6777 39.5967 44.8486 39.4258 45.0439 39.3281C45.2881 39.2305 45.5322 39.1572 45.7764 39.1084C46.0693 39.0596 46.2646 38.8887 46.3623 38.5957L46.582 38.6689C46.8262 38.6689 46.9971 38.5957 47.0947 38.4492C47.1924 38.2539 47.4609 38.1562 47.9004 38.1562C48.3887 38.1562 48.6572 38.1074 48.7061 38.0098C48.7549 37.9121 48.9502 37.8633 49.292 37.8633C49.6338 37.8633 50.1465 38.0342 50.8301 38.376C51.5625 38.7178 52.002 38.8887 52.1484 38.8887H52.3682C52.71 39.2793 53.1738 39.5234 53.7598 39.6211C54.4434 40.1582 55.1025 40.6709 55.7373 41.1592C56.4209 41.5986 56.958 42.1846 57.3486 42.917C57.4463 43.0146 57.4707 43.0879 57.4219 43.1367C57.4219 43.1855 57.4951 43.3076 57.6416 43.5029C57.7881 43.6494 57.9346 43.8447 58.0811 44.0889C58.2275 44.333 58.374 44.5527 58.5205 44.748C58.667 44.8945 58.7402 44.9678 58.7402 44.9678C58.7891 44.9189 58.8135 45.0898 58.8135 45.4805L58.8867 45.5537L59.1064 45.7002C59.3994 46.4326 59.6436 47.5557 59.8389 49.0693C60.0342 50.583 60.1318 51.4619 60.1318 51.7061C60.1318 51.9014 60.1562 52.0723 60.2051 52.2188C60.3027 52.3164 60.4004 52.5605 60.498 52.9512C60.5957 53.293 60.6201 53.8057 60.5713 54.4893C60.5713 55.124 60.5957 55.6611 60.6445 56.1006C60.7422 56.4912 60.8154 56.833 60.8643 57.126C60.9619 57.3701 61.0107 57.6387 61.0107 57.9316L60.791 59.0303L61.0107 63.791L60.791 64.8164L60.8643 66.4277L60.6445 68.8447L61.1572 71.1885L60.7178 73.166L61.0107 74.7041C61.0107 74.8994 60.9375 75.0459 60.791 75.1436C61.2793 75.5342 61.8652 75.7295 62.5488 75.7295L64.8193 75.29H66.8701C66.9678 75.3877 67.0166 75.4854 67.0166 75.583C67.0166 75.6807 67.0654 75.7783 67.1631 75.876C67.3096 75.9736 67.4316 76.0469 67.5293 76.0957C67.627 76.1445 67.6758 76.2666 67.6758 76.4619C67.6758 76.6572 67.627 76.8281 67.5293 76.9746C67.4316 77.0723 67.4316 77.2432 67.5293 77.4873C67.2363 77.5361 67.041 77.6582 66.9434 77.8535C66.8945 78 66.7725 78.1221 66.5771 78.2197C66.4307 78.3174 66.1865 78.3662 65.8447 78.3662C65.5029 78.3662 65.0879 78.4883 64.5996 78.7324C64.4043 78.6836 64.1602 78.6592 63.8672 78.6592L62.9883 78.4395C62.8906 78.4395 62.8174 78.4883 62.7686 78.5859C62.7686 78.7324 62.6953 78.8057 62.5488 78.8057L61.9629 78.5859C61.5723 78.5859 61.1816 78.6836 60.791 78.8789C60.4492 79.0742 60.1807 79.1719 59.9854 79.1719C59.79 79.1719 59.5459 79.123 59.2529 79.0254L58.3008 79.2451C58.1543 79.2451 57.959 79.1475 57.7148 78.9521C57.4707 78.7568 57.1045 78.4883 56.6162 78.1465C56.1768 77.8047 55.957 77.3408 55.957 76.7549L56.1035 75.7295L55.8105 74.9238L56.1035 70.0898L56.0303 68.0391C56.0303 67.6973 55.7617 67.5264 55.2246 67.5264C55.0781 67.5264 54.9072 67.5996 54.7119 67.7461C54.5654 67.8926 54.3945 68.0146 54.1992 68.1123C54.0527 68.21 53.8818 68.2588 53.6865 68.2588C53.54 68.2588 53.3691 68.3076 53.1738 68.4053C52.9785 68.5029 52.8076 68.625 52.6611 68.7715C52.5635 68.8691 52.3682 68.9424 52.0752 68.9912C51.6846 69.5283 51.1719 69.7969 50.5371 69.7969H50.3174C50.1709 69.8457 50.0488 69.9434 49.9512 70.0898C49.8535 70.2363 49.707 70.3828 49.5117 70.5293C49.3652 70.627 49.1455 70.7246 48.8525 70.8223C48.6084 70.8711 48.4131 71.042 48.2666 71.335L45.7764 71.7744C45.5322 71.7744 45.3125 71.7012 45.1172 71.5547C44.7266 71.9453 44.3359 72.1406 43.9453 72.1406C41.9922 72.1406 40.6982 71.7988 40.0635 71.1152C39.8193 70.8223 39.5264 70.5537 39.1846 70.3096L38.9648 69.2842C38.8672 69.04 38.7451 68.8447 38.5986 68.6982C38.501 68.5518 38.4033 68.332 38.3057 68.0391C38.2568 67.7461 38.2568 67.4287 38.3057 67.0869C38.3545 66.6963 38.3789 66.3301 38.3789 65.9883L38.2324 65.1826L38.5254 64.377V63.6445C38.5254 63.4492 38.5742 63.3027 38.6719 63.2051C38.7695 63.1074 38.8672 62.9854 38.9648 62.8389C39.0625 62.6924 39.0869 62.5459 39.0381 62.3994C38.9893 62.2041 39.1113 61.96 39.4043 61.667C39.6973 61.374 39.8438 61.1787 39.8438 61.0811C39.8438 60.9346 39.917 60.7393 40.0635 60.4951C40.2588 60.2021 40.5518 59.958 40.9424 59.7627C41.3818 59.5674 41.7236 59.2744 41.9678 58.8838C42.4072 58.835 42.8223 58.8105 43.2129 58.8105ZM54.4189 64.0107L55.0049 64.1572C55.1025 64.1572 55.1758 64.1084 55.2246 64.0107C55.3223 63.8643 55.4199 63.791 55.5176 63.791L55.0049 62.2529C54.4189 62.1553 53.833 61.9355 53.2471 61.5938C52.71 61.252 52.2705 61.0811 51.9287 61.0811L50.6104 61.2275L48.7061 61.1543L45.7764 61.667L44.8242 61.5205C44.4336 61.5205 44.043 61.5938 43.6523 61.7402C43.2617 61.8867 42.8711 61.9111 42.4805 61.8135C42.3828 62.1064 42.1631 62.4482 41.8213 62.8389C41.4795 63.2295 41.333 63.6934 41.3818 64.2305C41.4795 64.7676 41.5283 65.207 41.5283 65.5488L41.3818 66.208C41.3818 66.3057 41.4062 66.4033 41.4551 66.501C41.5527 66.5986 41.626 66.7207 41.6748 66.8672C41.7236 66.9648 41.7236 67.0869 41.6748 67.2334C41.6748 67.3799 41.6748 67.5508 41.6748 67.7461C41.6748 67.9414 41.7725 68.1611 41.9678 68.4053C42.2119 68.6494 42.3828 68.8936 42.4805 69.1377L42.5537 69.0645C42.6514 69.0645 42.7246 69.1377 42.7734 69.2842C42.8711 69.4307 43.1152 69.5039 43.5059 69.5039C45.166 69.5039 46.875 69.0645 48.6328 68.1855L49.585 67.7461C50.0732 67.4043 50.5859 67.1602 51.123 67.0137C51.709 66.8672 52.0996 66.5986 52.2949 66.208C53.0762 64.8896 53.7598 64.1572 54.3457 64.0107H54.4189ZM71.2646 81.8818L70.8252 76.9014V75.583L70.9717 75.4365L70.6787 74.9971L70.8252 73.6055L70.752 72.0674C70.752 71.5791 70.8252 71.1152 70.9717 70.6758C70.7764 70.4805 70.6787 70.2852 70.6787 70.0898L70.9717 68.625L70.8252 67.2334L70.8984 65.5488L70.5322 63.4248L70.6787 62.3262L70.5322 61.0811L70.6055 57.2725L70.2393 50.0947L70.3857 48.7764L70.166 47.751C70.166 47.5068 70.1904 47.3115 70.2393 47.165C70.2881 46.9697 70.2881 46.75 70.2393 46.5059C70.1416 46.2617 70.0928 46.042 70.0928 45.8467C70.1416 45.6025 70.166 45.334 70.166 45.041L70.0195 42.917L70.3125 40.5C70.2637 40.1094 70.2393 39.6943 70.2393 39.2549V38.0098L70.3857 33.9814L70.2393 32.5898L70.5322 30.6123L70.3857 28.3418C70.3857 28.2441 70.459 28.0488 70.6055 27.7559C70.752 27.4141 70.8252 27.1455 70.8252 26.9502C70.874 26.7061 70.9229 26.4131 70.9717 26.0713C71.0693 25.7295 71.0938 25.3389 71.0449 24.8994C71.0449 24.4111 71.0449 23.9961 71.0449 23.6543C71.0449 23.2637 70.9229 22.8975 70.6787 22.5557L70.2393 22.4824L68.1885 22.7021C67.5537 22.7021 67.2363 22.5557 67.2363 22.2627V21.1641C67.5781 20.7734 68.0908 20.5781 68.7744 20.5781C69.5068 20.5293 70.0928 20.3584 70.5322 20.0654H70.9717C71.2646 20.0654 71.4844 20.1387 71.6309 20.2852L73.0225 19.4062H73.3154L75.5127 19.1133C75.708 19.0156 75.8789 18.918 76.0254 18.8203C76.2207 18.6738 76.4648 18.6006 76.7578 18.6006C77.0996 18.6006 77.3438 18.7715 77.4902 19.1133C77.4902 19.7969 77.2949 20.1875 76.9043 20.2852C76.5625 20.3828 76.2695 20.4805 76.0254 20.5781C75.8301 20.627 75.6836 20.7246 75.5859 20.8711C75.4883 20.9688 75.3662 20.9688 75.2197 20.8711C75.1221 21.2617 74.9023 21.5303 74.5605 21.6768C74.6094 21.8721 74.6338 22.165 74.6338 22.5557C74.6338 22.9463 74.5605 23.3857 74.4141 23.874C74.7559 24.5088 74.9268 25.168 74.9268 25.8516C74.9268 26.5352 74.8535 26.877 74.707 26.877C74.6094 26.877 74.5605 26.9502 74.5605 27.0967L74.7803 27.9023C74.8291 28.4395 74.8291 28.9766 74.7803 29.5137C74.7803 30.002 74.7803 30.5146 74.7803 31.0518L74.9268 31.8574L74.5605 32.9561L74.9268 34.4941L74.5605 37.1309L74.9268 38.4492L74.7803 39.6211L74.9268 40.4268L74.7803 41.1592L74.9268 41.8184L74.7803 42.624L75.0732 44.1621L74.9268 45.1143L75.2197 46.7988L75.0732 47.458L75.2197 48.1904L75.0732 48.5566L75.2197 48.7764L75.0732 49.3623L75.3662 50.7539L75.2197 52.5117L75.5127 54.0498L75.3662 54.8555L75.5127 56.1006L75.3662 57.126L75.5859 58.5908L75.5127 60.2754L75.5859 61.0811L75.5127 61.5938L75.7324 62.8389L75.5859 63.8643L75.7324 64.5234L75.5859 64.8896L75.8789 66.0615C75.9766 66.4521 76.0254 66.8672 76.0254 67.3066V70.0898C76.0254 70.5781 75.9766 71.0664 75.8789 71.5547L75.5859 72.9463L75.8789 74.0449L75.7324 75.1436L75.8789 75.9492L75.7324 77.1943L75.8789 78.293L75.7324 79.9043C75.7324 80.3438 75.8301 80.6855 76.0254 80.9297H76.3184C76.8555 80.9297 77.2705 80.7344 77.5635 80.3438C77.8564 80.002 78.1982 79.8555 78.5889 79.9043H78.8086V80.1973H79.1748C79.3213 80.1973 79.4189 80.2461 79.4678 80.3438C79.3701 81.3691 78.7842 82.3213 77.71 83.2002C77.3193 83.2979 76.9775 83.3467 76.6846 83.3467C76.3916 83.3467 76.1719 83.2979 76.0254 83.2002C75.7812 83.4443 75.3662 83.542 74.7803 83.4932C74.2432 83.4443 73.7793 83.5908 73.3887 83.9326C73.0469 84.3232 72.7051 84.5674 72.3633 84.665C72.0703 84.7627 71.7529 84.7627 71.4111 84.665C71.1182 84.6162 70.8008 84.6406 70.459 84.7383C70.166 84.8359 69.873 85.0068 69.5801 85.251C69.3359 85.5439 69.0186 85.6904 68.6279 85.6904L68.2617 85.6172C68.0176 85.7148 67.8955 85.6416 67.8955 85.3975C67.9443 85.2021 67.9688 85.0312 67.9688 84.8848V84.7383C67.7734 84.6895 67.6758 84.4697 67.6758 84.0791V83.9326C67.9688 83.4443 68.3838 83.127 68.9209 82.9805C69.458 82.8828 69.8242 82.7607 70.0195 82.6143V82.4678C70.0195 82.2725 70.166 82.1992 70.459 82.248C70.8008 82.2969 71.0693 82.1748 71.2646 81.8818ZM86.792 81.8818L86.3525 76.9014V75.583L86.499 75.4365L86.2061 74.9971L86.3525 73.6055L86.2793 72.0674C86.2793 71.5791 86.3525 71.1152 86.499 70.6758C86.3037 70.4805 86.2061 70.2852 86.2061 70.0898L86.499 68.625L86.3525 67.2334L86.4258 65.5488L86.0596 63.4248L86.2061 62.3262L86.0596 61.0811L86.1328 57.2725L85.7666 50.0947L85.9131 48.7764L85.6934 47.751C85.6934 47.5068 85.7178 47.3115 85.7666 47.165C85.8154 46.9697 85.8154 46.75 85.7666 46.5059C85.6689 46.2617 85.6201 46.042 85.6201 45.8467C85.6689 45.6025 85.6934 45.334 85.6934 45.041L85.5469 42.917L85.8398 40.5C85.791 40.1094 85.7666 39.6943 85.7666 39.2549V38.0098L85.9131 33.9814L85.7666 32.5898L86.0596 30.6123L85.9131 28.3418C85.9131 28.2441 85.9863 28.0488 86.1328 27.7559C86.2793 27.4141 86.3525 27.1455 86.3525 26.9502C86.4014 26.7061 86.4502 26.4131 86.499 26.0713C86.5967 25.7295 86.6211 25.3389 86.5723 24.8994C86.5723 24.4111 86.5723 23.9961 86.5723 23.6543C86.5723 23.2637 86.4502 22.8975 86.2061 22.5557L85.7666 22.4824L83.7158 22.7021C83.0811 22.7021 82.7637 22.5557 82.7637 22.2627V21.1641C83.1055 20.7734 83.6182 20.5781 84.3018 20.5781C85.0342 20.5293 85.6201 20.3584 86.0596 20.0654H86.499C86.792 20.0654 87.0117 20.1387 87.1582 20.2852L88.5498 19.4062H88.8428L91.04 19.1133C91.2354 19.0156 91.4062 18.918 91.5527 18.8203C91.748 18.6738 91.9922 18.6006 92.2852 18.6006C92.627 18.6006 92.8711 18.7715 93.0176 19.1133C93.0176 19.7969 92.8223 20.1875 92.4316 20.2852C92.0898 20.3828 91.7969 20.4805 91.5527 20.5781C91.3574 20.627 91.2109 20.7246 91.1133 20.8711C91.0156 20.9688 90.8936 20.9688 90.7471 20.8711C90.6494 21.2617 90.4297 21.5303 90.0879 21.6768C90.1367 21.8721 90.1611 22.165 90.1611 22.5557C90.1611 22.9463 90.0879 23.3857 89.9414 23.874C90.2832 24.5088 90.4541 25.168 90.4541 25.8516C90.4541 26.5352 90.3809 26.877 90.2344 26.877C90.1367 26.877 90.0879 26.9502 90.0879 27.0967L90.3076 27.9023C90.3564 28.4395 90.3564 28.9766 90.3076 29.5137C90.3076 30.002 90.3076 30.5146 90.3076 31.0518L90.4541 31.8574L90.0879 32.9561L90.4541 34.4941L90.0879 37.1309L90.4541 38.4492L90.3076 39.6211L90.4541 40.4268L90.3076 41.1592L90.4541 41.8184L90.3076 42.624L90.6006 44.1621L90.4541 45.1143L90.7471 46.7988L90.6006 47.458L90.7471 48.1904L90.6006 48.5566L90.7471 48.7764L90.6006 49.3623L90.8936 50.7539L90.7471 52.5117L91.04 54.0498L90.8936 54.8555L91.04 56.1006L90.8936 57.126L91.1133 58.5908L91.04 60.2754L91.1133 61.0811L91.04 61.5938L91.2598 62.8389L91.1133 63.8643L91.2598 64.5234L91.1133 64.8896L91.4062 66.0615C91.5039 66.4521 91.5527 66.8672 91.5527 67.3066V70.0898C91.5527 70.5781 91.5039 71.0664 91.4062 71.5547L91.1133 72.9463L91.4062 74.0449L91.2598 75.1436L91.4062 75.9492L91.2598 77.1943L91.4062 78.293L91.2598 79.9043C91.2598 80.3438 91.3574 80.6855 91.5527 80.9297H91.8457C92.3828 80.9297 92.7979 80.7344 93.0908 80.3438C93.3838 80.002 93.7256 79.8555 94.1162 79.9043H94.3359V80.1973H94.7021C94.8486 80.1973 94.9463 80.2461 94.9951 80.3438C94.8975 81.3691 94.3115 82.3213 93.2373 83.2002C92.8467 83.2979 92.5049 83.3467 92.2119 83.3467C91.9189 83.3467 91.6992 83.2979 91.5527 83.2002C91.3086 83.4443 90.8936 83.542 90.3076 83.4932C89.7705 83.4443 89.3066 83.5908 88.916 83.9326C88.5742 84.3232 88.2324 84.5674 87.8906 84.665C87.5977 84.7627 87.2803 84.7627 86.9385 84.665C86.6455 84.6162 86.3281 84.6406 85.9863 84.7383C85.6934 84.8359 85.4004 85.0068 85.1074 85.251C84.8633 85.5439 84.5459 85.6904 84.1553 85.6904L83.7891 85.6172C83.5449 85.7148 83.4229 85.6416 83.4229 85.3975C83.4717 85.2021 83.4961 85.0312 83.4961 84.8848V84.7383C83.3008 84.6895 83.2031 84.4697 83.2031 84.0791V83.9326C83.4961 83.4443 83.9111 83.127 84.4482 82.9805C84.9854 82.8828 85.3516 82.7607 85.5469 82.6143V82.4678C85.5469 82.2725 85.6934 82.1992 85.9863 82.248C86.3281 82.2969 86.5967 82.1748 86.792 81.8818ZM115.503 48.6299L117.627 51.6328V51.7793C117.627 52.5117 117.822 53.1221 118.213 53.6104C118.652 54.0986 118.994 54.6846 119.238 55.3682C119.092 55.5635 118.945 55.7344 118.799 55.8809C118.652 56.0273 118.53 56.2227 118.433 56.4668C118.091 56.5645 117.847 56.6133 117.7 56.6133L116.528 56.54C116.235 56.54 115.991 56.6133 115.796 56.7598C115.552 56.6133 115.259 56.54 114.917 56.54H114.038C113.55 56.54 113.135 56.4668 112.793 56.3203C112.598 56.3691 112.451 56.5156 112.354 56.7598C112.256 57.0039 111.914 57.126 111.328 57.126C110.742 57.0771 110.303 57.1016 110.01 57.1992C109.766 57.248 109.57 57.3213 109.424 57.4189C109.277 57.4678 109.058 57.4922 108.765 57.4922L107.3 57.3457H105.542C105.103 58.0293 104.883 59.8359 104.883 62.7656L105.396 65.9883L105.322 67.5264C105.322 68.0635 105.371 68.3809 105.469 68.4785C105.811 68.918 105.981 69.4062 105.981 69.9434C105.981 70.4316 106.104 70.9443 106.348 71.4814C106.641 72.0186 106.812 72.458 106.86 72.7998C106.958 73.0928 107.104 73.4834 107.3 73.9717C107.495 74.46 107.837 74.9238 108.325 75.3633C108.862 75.7539 109.448 75.9492 110.083 75.9492C110.767 75.9492 111.328 75.7783 111.768 75.4365C112.256 75.0459 112.622 74.7773 112.866 74.6309C113.159 74.4844 113.33 74.4355 113.379 74.4844C113.428 74.4844 113.525 74.4355 113.672 74.3379C113.867 74.2402 114.16 73.9961 114.551 73.6055C114.99 73.2148 115.259 72.9463 115.356 72.7998C115.454 72.6533 115.552 72.458 115.649 72.2139C115.747 71.9209 115.869 71.5303 116.016 71.042C116.211 70.5537 116.479 70.3096 116.821 70.3096C117.163 70.3096 117.505 70.5781 117.847 71.1152C118.237 71.6035 118.433 72.1162 118.433 72.6533C118.433 73.1416 118.14 73.5322 117.554 73.8252C117.017 74.1182 116.675 74.5332 116.528 75.0703C115.747 75.4121 115.283 75.7539 115.137 76.0957C115.039 76.3887 114.917 76.584 114.771 76.6816C114.673 76.7305 114.6 76.7549 114.551 76.7549C114.502 76.7061 114.429 76.6816 114.331 76.6816C114.233 76.6816 114.185 76.7793 114.185 76.9746C113.892 77.1699 113.599 77.4141 113.306 77.707C112.72 77.5117 112.134 77.6094 111.548 78C110.962 78.4395 110.4 78.6592 109.863 78.6592C109.326 78.6592 108.838 78.4639 108.398 78.0732C108.154 78.1709 107.886 78.2197 107.593 78.2197C107.3 78.2197 107.007 78.2686 106.714 78.3662C106.323 77.9756 105.884 77.6826 105.396 77.4873C104.907 77.292 104.419 77.0723 103.931 76.8281C103.833 76.5352 103.711 76.3887 103.564 76.3887C103.467 76.3398 103.467 76.1445 103.564 75.8027C103.369 75.7051 103.174 75.6074 102.979 75.5098C102.832 75.4121 102.661 75.3145 102.466 75.2168C102.319 74.875 102.051 74.5088 101.66 74.1182V73.166C101.27 73.0195 101.001 72.7266 100.854 72.2871C100.757 71.7988 100.513 71.4326 100.122 71.1885C100.073 70.6025 99.9512 70.041 99.7559 69.5039C99.6094 68.918 99.5361 68.332 99.5361 67.7461V66.4277L99.0234 63.3516V62.7656L99.2432 62.1064L99.0234 61.4473L99.5361 58.3711L99.8291 57.9316C100.073 56.6621 100.269 55.5146 100.415 54.4893C100.61 53.4639 100.952 52.4873 101.44 51.5596C101.978 50.583 102.515 49.6797 103.052 48.8496C103.589 47.9707 103.931 47.165 104.077 46.4326C105.542 45.2607 107.031 44.2598 108.545 43.4297C108.789 43.5273 108.984 43.5762 109.131 43.5762L110.303 43.3564C110.742 43.3564 111.255 43.6494 111.841 44.2354L112.646 44.0889H112.939C113.037 44.2354 113.086 44.4062 113.086 44.6016C113.135 44.7969 113.257 44.9189 113.452 44.9678C113.989 45.4072 114.307 45.9443 114.404 46.5791C114.551 47.165 114.917 47.6289 115.503 47.9707V48.6299ZM113.452 54.7822L115.942 54.2695V53.9766C115.942 53.6836 115.894 53.3906 115.796 53.0977C115.747 52.8047 115.698 52.5117 115.649 52.2188C115.356 51.877 115.063 51.6084 114.771 51.4131C114.526 51.2178 114.429 50.8516 114.478 50.3145C114.038 50.168 113.745 49.8506 113.599 49.3623C113.501 48.874 113.403 48.4102 113.306 47.9707C113.208 47.9707 113.159 47.873 113.159 47.6777C112.817 47.4336 112.573 47.2383 112.427 47.0918C111.89 46.5547 111.035 46.2861 109.863 46.2861C108.74 46.2861 108.008 46.4326 107.666 46.7256C107.373 46.9697 107.056 47.7021 106.714 48.9229C106.372 50.0947 106.055 51.0957 105.762 51.9258C105.518 52.707 105.396 53.5127 105.396 54.3428V54.7822L107.739 55.0752L109.424 54.9287L110.01 55.0752L111.182 54.7822L112.207 54.9287L112.793 54.6357L113.452 54.7822ZM130.371 43.3564L130.151 44.4551C130.151 44.9922 130.444 45.4072 131.03 45.7002C131.177 45.6514 131.421 45.4805 131.763 45.1875C132.104 44.8457 132.642 44.3818 133.374 43.7959C134.106 43.1611 134.521 42.6729 134.619 42.3311C135.01 42.0869 135.474 41.7451 136.011 41.3057C136.548 40.8174 136.865 40.5 136.963 40.3535H137.256C138.184 39.4258 139.307 38.791 140.625 38.4492C141.992 38.0586 142.896 37.8633 143.335 37.8633C144.751 37.8633 145.923 38.4004 146.851 39.4746C147.046 39.7676 147.241 40.085 147.437 40.4268C147.681 40.7197 147.998 41.0615 148.389 41.4521C148.682 41.6475 148.877 42.1113 148.975 42.8438C149.121 43.5273 149.292 44.0156 149.487 44.3086C149.39 44.5039 149.243 44.7969 149.048 45.1875C148.901 45.5293 148.706 45.8955 148.462 46.2861C148.267 46.6279 148.071 46.9697 147.876 47.3115C147.729 47.6045 147.583 47.7998 147.437 47.8975C147.339 47.9951 147.07 48.1904 146.631 48.4834C146.191 48.7275 145.898 48.9961 145.752 49.2891C145.703 49.3379 145.459 49.4111 145.02 49.5088C144.629 49.6064 144.385 49.7041 144.287 49.8018H144.141C143.994 49.8506 143.896 49.8018 143.848 49.6553C143.848 49.5088 143.799 49.3867 143.701 49.2891H143.408C143.018 49.2891 142.749 49.1914 142.603 48.9961L141.943 48.4102C142.236 47.6289 142.627 46.9941 143.115 46.5059C143.506 46.6035 143.872 46.6523 144.214 46.6523C144.995 46.6523 145.605 45.9688 146.045 44.6016C145.752 44.1133 145.532 43.6494 145.386 43.21C145.288 42.7705 145.093 42.2822 144.8 41.7451C144.507 41.1592 143.872 40.8662 142.896 40.8662C141.968 40.8662 141.211 41.1104 140.625 41.5986C140.039 42.0381 139.673 42.5264 139.526 43.0635C139.087 43.2588 138.696 43.5762 138.354 44.0156C138.013 44.4062 137.573 44.7725 137.036 45.1143C136.499 45.4561 136.23 45.6758 136.23 45.7734C136.23 45.8223 136.206 45.8711 136.157 45.9199C136.157 45.9688 136.084 46.0176 135.938 46.0664C135.84 46.1152 135.645 46.2129 135.352 46.3594C135.254 46.5059 135.181 46.6768 135.132 46.8721C135.083 47.0186 135.01 47.1895 134.912 47.3848C134.668 47.4336 134.448 47.5557 134.253 47.751C134.106 47.8975 133.911 47.9951 133.667 48.0439L133.74 48.7031C133.74 49.3379 133.301 50.0947 132.422 50.9736L132.715 51.9258V51.999C132.52 52.292 132.373 52.6338 132.275 53.0244C132.227 53.415 132.056 53.7324 131.763 53.9766C131.519 55.1973 131.396 56.6133 131.396 58.2246L131.47 64.0107C131.47 64.2549 131.494 64.6455 131.543 65.1826C131.592 65.6709 131.641 66.4033 131.689 67.3799C131.787 68.3564 131.934 69.0156 132.129 69.3574L132.056 69.6504C132.104 69.748 132.129 70.041 132.129 70.5293C132.129 70.9688 132.202 71.457 132.349 71.9941C132.544 72.4824 132.568 73.0195 132.422 73.6055C132.568 73.9961 132.959 74.1914 133.594 74.1914C134.229 74.1914 134.668 74.0938 134.912 73.8984H134.985C135.181 73.8984 135.254 73.8252 135.205 73.6787C135.205 73.5322 135.254 73.3857 135.352 73.2393C135.547 73.1416 135.791 73.0928 136.084 73.0928C136.426 73.0928 136.694 73.2881 136.89 73.6787C137.085 74.0693 137.183 74.4355 137.183 74.7773C137.183 75.0703 137.158 75.29 137.109 75.4365C136.67 75.7783 136.182 75.9248 135.645 75.876C135.498 75.9736 135.327 76.1201 135.132 76.3154C134.985 76.4619 134.766 76.6084 134.473 76.7549C134.18 76.9014 133.594 76.9746 132.715 76.9746C131.836 76.9258 131.201 76.9746 130.811 77.1211C130.469 77.2188 130.249 77.292 130.151 77.3408C130.103 77.3896 129.932 77.4629 129.639 77.5605C129.395 77.6094 129.053 77.6338 128.613 77.6338C128.174 77.6338 127.783 77.7803 127.441 78.0732H127.295C127.148 78.0732 127.051 78.0488 127.002 78C126.953 77.9023 126.88 77.8291 126.782 77.7803C126.294 77.8779 125.903 77.9268 125.61 77.9268C125.317 77.9268 125.098 77.8779 124.951 77.7803C125.049 76.4619 126.074 75.583 128.027 75.1436C128.027 74.8994 128.125 74.7529 128.32 74.7041V74.5576C128.32 74.0205 128.223 73.4834 128.027 72.9463C127.832 72.4092 127.734 71.8477 127.734 71.2617L127.881 70.3096L127.441 67.9658L127.588 66.6475L127.148 62.3994L127.295 59.3965C127.295 59.1035 127.295 58.8105 127.295 58.5176L126.855 56.4668L127.002 55.2217L126.855 52.8779L127.002 51.1201L126.782 48.5566C126.733 47.9707 126.709 47.3848 126.709 46.7988C126.758 46.2129 126.782 45.627 126.782 45.041L126.562 43.6494C126.562 43.0635 126.514 42.3799 126.416 41.5986C126.123 41.6963 125.781 41.7207 125.391 41.6719C125.049 41.5742 124.78 41.7207 124.585 42.1113C124.39 41.9648 124.268 41.8916 124.219 41.8916L123.12 42.3311C123.071 42.0869 122.925 41.9893 122.681 42.0381C122.485 42.0869 122.314 42.1113 122.168 42.1113H122.095C121.997 41.6719 121.948 41.3789 121.948 41.2324C121.948 40.4512 122.339 40.0605 123.12 40.0605L123.999 39.8408C125.562 39.4014 126.685 39.0596 127.368 38.8154C128.101 38.5713 128.564 38.4736 128.76 38.5225C128.955 38.5713 129.15 38.7422 129.346 39.0352C129.541 39.3281 129.688 39.6455 129.785 39.9873C129.883 40.3291 129.932 40.6953 129.932 41.0859C129.98 41.4277 130.029 41.7695 130.078 42.1113L130.371 43.3564ZM160.62 47.2383C160.229 48.4102 159.692 49.1914 159.009 49.582C159.058 50.1191 159.277 50.6074 159.668 51.0469C160.059 51.4863 160.327 51.877 160.474 52.2188C160.669 52.5605 160.791 52.8047 160.84 52.9512C160.889 53.0977 161.011 53.3662 161.206 53.7568C161.45 54.1475 161.743 54.5625 162.085 55.002C162.427 55.4414 162.72 55.8809 162.964 56.3203C163.257 56.7598 163.525 57.1748 163.77 57.5654L164.355 58.3711C164.551 58.6152 164.722 58.8838 164.868 59.1768C165.015 59.4697 165.186 59.7627 165.381 60.0557L165.601 60.2021C165.894 60.7881 166.187 61.3496 166.479 61.8867C166.821 62.4238 167.114 62.9609 167.358 63.498L167.651 63.6445C167.847 64.2305 168.091 64.7676 168.384 65.2559L168.677 65.4023C168.97 66.1348 169.312 66.501 169.702 66.501C170.093 66.501 170.386 66.1348 170.581 65.4023C170.923 63.791 171.191 62.9121 171.387 62.7656C171.484 62.5703 171.533 62.3994 171.533 62.2529C171.533 62.0576 171.582 61.8623 171.68 61.667L172.119 60.8613L172.485 59.7627C172.534 59.6162 172.583 59.4941 172.632 59.3965C172.729 59.25 172.803 59.0791 172.852 58.8838C172.949 58.6885 172.998 58.4443 172.998 58.1514C172.998 57.8096 173.071 57.4434 173.218 57.0527C173.364 56.6621 173.535 56.1738 173.73 55.5879C173.926 55.002 174.146 54.4404 174.39 53.9033C174.683 53.3662 174.927 52.8535 175.122 52.3652C175.366 51.8281 175.562 51.3887 175.708 51.0469C175.903 50.7051 176.025 50.4854 176.074 50.3877C176.172 50.29 176.245 50.1924 176.294 50.0947C176.392 49.9971 176.416 49.8994 176.367 49.8018C176.367 49.6553 176.392 49.5088 176.44 49.3623C176.538 49.2158 176.685 49.0938 176.88 48.9961C177.075 48.8496 177.246 48.5811 177.393 48.1904C177.588 47.7998 177.759 47.2627 177.905 46.5791C178.101 45.8955 178.418 45.3828 178.857 45.041C179.346 44.6992 179.834 44.5283 180.322 44.5283C180.811 44.5283 181.152 44.6504 181.348 44.8945C181.543 45.1387 181.738 45.3096 181.934 45.4072V45.627C181.934 46.5547 181.689 47.0918 181.201 47.2383C180.859 48.5078 180.493 49.5576 180.103 50.3877C179.761 51.1689 179.517 51.584 179.37 51.6328C179.077 52.8535 178.54 53.9521 177.759 54.9287C177.661 55.1729 177.612 55.4414 177.612 55.7344C177.612 56.3691 177.393 56.9551 176.953 57.4922C176.514 58.0293 176.294 58.5176 176.294 58.957V59.8359C176.294 60.3242 176.074 60.8857 175.635 61.5205C175.635 62.0088 175.562 62.4727 175.415 62.9121C174.683 64.8164 174.341 66.1592 174.39 66.9404C174.146 67.0381 173.877 67.5752 173.584 68.5518C173.291 69.5283 173.145 70.1143 173.145 70.3096L173.218 71.6279C173.218 72.1162 173.096 72.458 172.852 72.6533C172.607 72.7998 172.412 72.9707 172.266 73.166C172.168 73.3613 172.07 73.5566 171.973 73.752C171.875 73.9473 171.729 74.0938 171.533 74.1914C171.631 74.2891 171.68 74.5332 171.68 74.9238C171.68 75.2656 171.167 76.4375 170.142 78.4395C169.165 80.4414 168.628 81.5156 168.53 81.6621V82.834C168.384 83.0293 168.237 83.2246 168.091 83.4199C167.993 83.6152 167.847 83.8105 167.651 84.0059C167.456 84.2012 167.334 84.4209 167.285 84.665C167.236 84.9092 167.041 85.0068 166.699 84.958C166.553 85.5928 166.333 86.1787 166.04 86.7158C165.747 87.3018 165.552 87.7656 165.454 88.1074C165.405 88.498 165.308 88.7178 165.161 88.7666C165.015 88.8154 164.893 88.8887 164.795 88.9863C164.697 89.1328 164.624 89.2549 164.575 89.3525C164.575 89.499 164.526 89.5479 164.429 89.499H164.209V89.5723L164.355 90.2314V90.4512C163.672 90.9883 163.208 91.8184 162.964 92.9414C162.573 93.1367 162.329 93.3564 162.231 93.6006C162.134 93.8447 161.963 94.0889 161.719 94.333C161.475 94.7236 161.182 95.0654 160.84 95.3584C160.498 95.6514 160.229 96.042 160.034 96.5303C159.79 96.5791 159.57 96.6035 159.375 96.6035C159.18 96.6523 158.96 96.7256 158.716 96.8232C158.423 97.2139 158.057 97.4824 157.617 97.6289C157.178 97.8242 156.812 98.1904 156.519 98.7275C156.079 98.8252 155.542 99.0205 154.907 99.3135C154.321 99.6553 153.76 99.875 153.223 99.9727C153.076 100.07 152.93 100.168 152.783 100.266C152.686 100.363 152.49 100.461 152.197 100.559C151.904 100.705 151.27 100.778 150.293 100.778C149.316 100.778 148.535 100.705 147.949 100.559C147.51 100.705 147.021 100.778 146.484 100.778C145.117 100.778 144.434 100.461 144.434 99.8262C144.434 99.6797 144.336 99.582 144.141 99.5332C143.945 99.5332 143.774 99.4355 143.628 99.2402V98.9473H143.335C142.993 98.6543 142.798 98.4834 142.749 98.4346C142.749 98.1416 142.676 97.9463 142.529 97.8486C142.383 97.7998 142.358 97.6289 142.456 97.3359C141.919 97.0918 141.553 96.457 141.357 95.4316C141.162 94.4062 141.064 93.7959 141.064 93.6006L141.357 92.6484L141.211 91.8428C141.211 91.5986 141.333 91.208 141.577 90.6709C141.821 90.1338 141.968 89.6943 142.017 89.3525C142.603 88.8643 142.944 88.376 143.042 87.8877C143.433 87.7412 143.75 87.4971 143.994 87.1553C144.189 86.8623 144.409 86.5693 144.653 86.2764C145.19 86.1299 145.752 85.959 146.338 85.7637C146.875 85.6172 147.534 85.5439 148.315 85.5439C149.097 85.5439 149.756 85.7637 150.293 86.2031C150.83 86.6914 151.245 87.082 151.538 87.375C151.831 87.7168 152.173 88.0586 152.563 88.4004C152.466 89.1816 152.417 89.8164 152.417 90.3047C152.173 90.4023 151.953 90.5244 151.758 90.6709C151.562 90.8174 151.294 90.8906 150.952 90.8906C150.61 90.8906 150.366 90.7441 150.22 90.4512C150.122 90.1582 149.878 89.9629 149.487 89.8652L148.975 88.5469C148.633 88.498 148.315 88.4248 148.022 88.3271C147.729 88.2295 147.339 88.1807 146.851 88.1807C146.362 88.1807 145.996 88.4004 145.752 88.8398C145.508 89.2793 145.19 89.6699 144.8 90.0117L144.653 90.3047C144.507 90.4023 144.336 90.5 144.141 90.5977C143.896 90.6953 143.75 90.8418 143.701 91.0371C143.799 91.2324 143.848 91.4766 143.848 91.7695C143.848 92.0625 143.75 92.3799 143.555 92.7217C143.311 93.0635 143.188 93.4297 143.188 93.8203C143.188 94.2109 143.311 94.6016 143.555 94.9922C143.75 95.4316 143.896 95.8467 143.994 96.2373C144.434 96.5303 144.8 96.8721 145.093 97.2627C145.337 97.6533 145.654 97.9707 146.045 98.2148C146.436 98.3125 146.802 98.3125 147.144 98.2148C147.485 98.166 147.852 98.1416 148.242 98.1416L149.121 98.4346L149.194 98.2148H150.22C150.806 98.2148 151.538 98.0684 152.417 97.7754C153.345 97.5312 154.028 97.2871 154.468 97.043L155.127 96.5303C155.469 96.2861 155.811 96.042 156.152 95.7979C156.543 95.6025 156.86 95.3584 157.104 95.0654C157.397 94.8213 157.642 94.5283 157.837 94.1865C158.081 93.8936 158.374 93.6494 158.716 93.4541C159.009 92.8682 159.375 92.209 159.814 91.4766C161.523 88.6934 162.5 86.5693 162.744 85.1045C163.086 84.8604 163.477 84.2012 163.916 83.127C164.355 82.1016 164.697 81.5156 164.941 81.3691C165.088 80.5879 165.308 80.0752 165.601 79.8311C165.649 79.1963 165.82 78.6104 166.113 78.0732C166.455 77.5361 166.675 77.0234 166.772 76.5352C166.87 75.998 166.992 75.5098 167.139 75.0703C167.578 74.4844 167.798 73.8984 167.798 73.3125C167.798 72.6777 167.7 72.2139 167.505 71.9209C167.31 71.6279 167.261 71.2861 167.358 70.8955C167.212 70.8467 167.09 70.7734 166.992 70.6758C166.895 70.5293 166.748 70.4072 166.553 70.3096C166.357 69.8213 166.113 69.4307 165.82 69.1377C165.576 68.7959 165.332 68.4541 165.088 68.1123C164.844 67.7217 164.673 67.3555 164.575 67.0137C164.526 66.623 164.258 66.3789 163.77 66.2812L163.843 66.1348C163.843 65.9395 163.794 65.8174 163.696 65.7686C163.599 65.6709 163.574 65.5 163.623 65.2559C163.574 65.0605 163.403 64.9629 163.11 64.9629C163.11 64.6699 163.013 64.4258 162.817 64.2305C162.622 63.9863 162.476 63.791 162.378 63.6445C162.28 63.4492 162.231 63.3271 162.231 63.2783C162.28 63.2295 162.256 63.1562 162.158 63.0586L161.865 62.9121C161.768 62.8145 161.719 62.7168 161.719 62.6191C161.719 62.4727 161.646 62.2773 161.499 62.0332C161.353 61.7402 161.133 61.3984 160.84 61.0078C160.596 60.5684 160.376 60.1045 160.181 59.6162C159.79 59.1768 159.424 58.7617 159.082 58.3711C158.74 57.9805 158.472 57.4922 158.276 56.9062C157.788 56.4668 157.397 55.9541 157.104 55.3682C156.812 54.7334 156.445 54.1719 156.006 53.6836V53.5371C156.006 53.293 155.884 52.9512 155.64 52.5117C155.396 52.0234 155.176 51.7061 154.98 51.5596C154.834 51.4131 154.688 51.2666 154.541 51.1201C154.443 50.9248 154.37 50.7295 154.321 50.5342C154.272 50.3389 154.175 50.168 154.028 50.0215L151.685 50.168C150.61 50.168 150.073 49.9971 150.073 49.6553L150.22 49.1426C150.22 49.0449 150.171 48.9961 150.073 48.9961L149.78 48.4834C149.78 48.3369 149.829 48.2637 149.927 48.2637C149.976 47.873 150.293 47.6777 150.879 47.6777C151.514 47.6289 152.075 47.5312 152.563 47.3848C153.052 47.1895 153.442 47.1406 153.735 47.2383C153.979 47.1406 154.224 46.9941 154.468 46.7988C154.712 46.6035 154.98 46.5059 155.273 46.5059L156.519 46.6523L157.69 46.3594L158.716 46.5059L159.229 46.3594C159.717 46.3594 160.181 46.6523 160.62 47.2383Z" fill="white"/>
</svg>
