<svg width="51" height="38" viewBox="0 0 51 38" fill="none" xmlns="http://www.w3.org/2000/svg">
<path id="Vector" d="M42.3853 0.980304C37.794 0.531901 31.1388 0 25.5 0C19.8612 0 13.206 0.531901 8.61776 0.980304C3.70423 1.45345 0 5.51693 0 10.4308V27.5692C0 32.4831 3.70423 36.5465 8.61467 37.0197C13.206 37.4681 19.8612 38 25.5 38C31.1388 38 37.794 37.4681 42.3822 37.0197C47.2958 36.5466 51 32.4831 51 27.5692V10.4308C51 5.51693 47.2958 1.45347 42.3853 0.980304ZM19.125 28.5V9.49999L35.0625 18.9954L19.125 28.5Z" fill="white"/>
</svg>
