<svg width="50" height="51" viewBox="0 0 50 51" fill="none" xmlns="http://www.w3.org/2000/svg">
<path id="Vector" d="M16.6687 25.5C16.6687 20.8058 20.3986 16.9993 25.001 16.9993C29.6034 16.9993 33.3354 20.8058 33.3354 25.5C33.3354 30.1942 29.6034 34.0007 25.001 34.0007C20.3986 34.0007 16.6687 30.1942 16.6687 25.5ZM12.1633 25.5C12.1633 32.7319 17.9107 38.594 25.001 38.594C32.0914 38.594 37.8388 32.7319 37.8388 25.5C37.8388 18.2681 32.0914 12.406 25.001 12.406C17.9107 12.406 12.1633 18.2681 12.1633 25.5ZM35.3467 11.887C35.3467 13.576 36.6897 14.9478 38.3477 14.9478C40.0036 14.9478 41.3486 13.576 41.3486 11.887C41.3486 10.1979 40.0057 8.82819 38.3477 8.82819C36.6897 8.82819 35.3467 10.1979 35.3467 11.887ZM14.8996 46.2563C12.4621 46.1431 11.1374 45.729 10.2569 45.3789C9.08962 44.9154 8.2576 44.3634 7.38115 43.4715C6.50673 42.5796 5.96349 41.731 5.51113 40.5405C5.16782 39.6424 4.76191 38.2912 4.65083 35.805C4.52967 33.117 4.50543 32.3096 4.50543 25.5C4.50543 18.6904 4.53169 17.885 4.65083 15.195C4.76191 12.7088 5.16984 11.3597 5.51113 10.4595C5.96551 9.26898 6.50673 8.42036 7.38115 7.52641C8.25558 6.63453 9.0876 6.08045 10.2569 5.61906C11.1374 5.2689 12.4621 4.85489 14.8996 4.7416C17.535 4.61801 18.3267 4.5933 25.001 4.5933C31.6774 4.5933 32.467 4.62007 35.1044 4.7416C37.5419 4.85489 38.8647 5.27096 39.7472 5.61906C40.9144 6.08045 41.7464 6.63453 42.6229 7.52641C43.4973 8.4183 44.0385 9.26898 44.4929 10.4595C44.8362 11.3576 45.2421 12.7088 45.3532 15.195C45.4744 17.885 45.4986 18.6904 45.4986 25.5C45.4986 32.3076 45.4744 33.115 45.3532 35.805C45.2421 38.2912 44.8342 39.6424 44.4929 40.5405C44.0385 41.731 43.4973 42.5796 42.6229 43.4715C41.7485 44.3634 40.9144 44.9154 39.7472 45.3789C38.8667 45.729 37.5419 46.1431 35.1044 46.2563C32.469 46.3799 31.6774 46.4046 25.001 46.4046C18.3267 46.4046 17.535 46.3799 14.8996 46.2563ZM14.6936 0.154483C12.032 0.278069 10.2145 0.708562 8.62515 1.33885C6.9813 1.98974 5.58787 2.86309 4.19645 4.28021C2.80706 5.69733 1.95081 7.11858 1.31265 8.79729C0.694697 10.4183 0.272628 12.2721 0.15146 14.9869C0.0282726 17.7058 0 18.575 0 25.5C0 32.425 0.0282726 33.2942 0.15146 36.0131C0.272628 38.7279 0.694697 40.5817 1.31265 42.2027C1.95081 43.8794 2.80504 45.3027 4.19645 46.7198C5.58585 48.1369 6.97928 49.0082 8.62515 49.6611C10.2165 50.2914 12.032 50.7219 14.6936 50.8455C17.3614 50.9691 18.2116 51 25.001 51C31.7925 51 32.6427 50.9712 35.3084 50.8455C37.97 50.7219 39.7876 50.2914 41.3769 49.6611C43.0207 49.0082 44.4142 48.1369 45.8056 46.7198C47.195 45.3027 48.0492 43.8794 48.6894 42.2027C49.3073 40.5817 49.7314 38.7279 49.8506 36.0131C49.9717 33.2921 50 32.425 50 25.5C50 18.575 49.9717 17.7058 49.8506 14.9869C49.7294 12.2721 49.3073 10.4183 48.6894 8.79729C48.0492 7.12064 47.195 5.69939 45.8056 4.28021C44.4162 2.86309 43.0207 1.98974 41.3789 1.33885C39.7876 0.708562 37.97 0.27601 35.3104 0.154483C32.6447 0.0308966 31.7925 0 25.003 0C18.2116 0 17.3614 0.0288368 14.6936 0.154483Z" fill="white"/>
</svg>
